# AST/ASF file generated using VICON BodyLanguage
# -----------------------------------------------
:version 1.10
:name VICON
:units
  mass 1.0
  length 0.45
  angle deg
:documentation
   .ast/.asf automatically generated from VICON data using
   VICON BodyBuilder and BodyLanguage model FoxedUp or BRILLIANT.MOD
:root
   order TX TY TZ RX RY RZ
   axis XYZ
   position 0 0 0  
   orientation 0 0 0 
:bonedata
  begin
     id 1 
     name lhipjoint
     direction 0.440178 -0.822639 0.359871 
     length 2.53113 
     axis 0 0 0  XYZ
  end
  begin
     id 2 
     name lfemur
     direction 0.34202 -0.939693 0  
     length 7.88132  
     axis 0 0 20  XYZ
    dof rx ry rz
    limits (-160.0 20.0)
           (-70.0 70.0)
           (-60.0 70.0)
  end
  begin
     id 3 
     name ltibia
     direction 0.34202 -0.939693 0   
     length 8.43783   
     axis 0 0 20   XYZ
    dof rx
    limits (-10.0 170.0)
  end
  begin
     id 4 
     name lfoot
     direction 0.0886351 -0.243523 0.965837   
     length 2.63414   
     axis -90 7.62852e-016 20   XYZ
    dof rx rz
    limits (-45.0 90.0)
           (-70.0 20.0)
  end
  begin
     id 5 
     name ltoes
     direction 1.53703e-011 -4.21717e-011 1   
     length 1.31427   
     axis -90 7.62852e-016 20   XYZ
    dof rx
    limits (-90.0 20.0)
  end
  begin
     id 6 
     name rhipjoint
     direction -0.399779 -0.839773 0.367367   
     length 2.47948  
     axis 0 0 0  XYZ 
  end
  begin
     id 7 
     name rfemur
     direction -0.34202 -0.939693 0   
     length 7.74806   
     axis 0 0 -20   XYZ
    dof rx ry rz
    limits (-160.0 20.0)
           (-70.0 70.0)
           (-70.0 60.0)
  end
  begin
     id 8 
     name rtibia
     direction -0.34202 -0.939693 0   
     length 8.74432   
     axis 0 0 -20   XYZ
    dof rx
    limits (-10.0 170.0)
 end
 begin
     id 9 
     name rfoot
     direction -0.108514 -0.298139 0.948334   
     length 2.66102  
     axis -90 -7.62852e-016 -20   XYZ
    dof rx rz
    limits (-45.0 90.0)
           (-20.0 70.0)
  end
  begin
     id 10 
     name rtoes
     direction -1.53392e-011 -4.22077e-011 1   
     length 1.31983   
     axis -90 -7.62852e-016 -20   XYZ
    dof rx
    limits (-90.0 20.0)
  end
  begin
     id 11 
     name lowerback
     direction 0.0113257 0.999866 0.0118602   
     length 2.58694   
     axis 0 0 0   XYZ
    dof rx ry rz
    limits (-20.0 45.0)
           (-30.0 30.0)
           (-30.0 30.0)
  end
  begin
     id 12 
     name upperback
     direction -0.0164747 0.995193 -0.0965375   
     length 2.52368   
     axis 0 0 0   XYZ
    dof rx ry rz
    limits (-20.0 45.0)
           (-30.0 30.0)
           (-30.0 30.0)
  end
  begin
     id 13 
     name thorax
     direction -0.0194301 0.99433 -0.104552   
     length 2.56099   
     axis 0 0 0   XYZ
    dof rx ry rz
    limits (-20.0 45.0)
           (-30.0 30.0)
           (-30.0 30.0)
  end
  begin
     id 14 
     name lowerneck
     direction 0.0148543 0.995587 -0.092657   
     length 1.71582   
     axis 0 0 0   XYZ
    dof rx ry rz
    limits (-20.0 45.0)
           (-30.0 30.0)
           (-30.0 30.0)
  end
  begin
     id 15 
     name upperneck
     direction -0.0135467 0.993656 -0.111639   
     length 1.68937   
     axis 0 0 0   XYZ
    dof rx ry rz
    limits (-20.0 45.0)
           (-30.0 30.0)
           (-30.0 30.0)
  end
  begin
     id 16
     name head
     direction -0.00615349 0.999547 -0.029448  
     length 1.7462  
     axis 0 0 0   XYZ
    dof rx ry rz
    limits (-20.0 45.0)
           (-30.0 30.0)
           (-30.0 30.0)
  end
  begin
     id 17 
     name lclavicle
     direction 0.988267 0.149885 0.0293713  
     length 4.47222  
     axis 0 0 0   XYZ
    dof ry rz
    limits (-20.0 10.0)
           (0.0 20.0)
  end
  begin
     id 18 
     name lhumerus
     direction 1 -4.48986e-011 -1.14833e-027   
     length 5.37148   
     axis 180 -30 -90   XYZ
    dof rx ry rz
    limits (-60.0 90.0)
           (-90.0 90.0)
           (-90.0 90.0)
  end
  begin
     id 19
     name lradius
     direction 0.999998 0.00170963 -0.000987055   
     length 3.94212   
     axis 180 -30 -90   XYZ
    dof rx
    limits (-10.0 170.0)
  end
  begin
     id 20
     name lwrist
     direction 0.999998 7.53149e-005 -0.00194706   
     length 1.97106   
     axis 4.65056e-015 90 90   XYZ
    dof ry
    limits (-180.0 0.0)
 end
  begin
     id 21 
     name lhand
     direction 1 -4.48973e-011 -1.31746e-026   
     length 1.17917   
     axis 8.4065e-015 90 90   XYZ
    dof rx rz
    limits (-90.0 90.0)
           (-45.0 45.0)
  end
  begin
     id 22 
     name lfingers
     direction 1 -4.49107e-011 -2.63492e-026   
     length 0.950679   
     axis 1.6813e-014 90 90   XYZ
    dof rx
    limits (0.0 90.0)
  end
  begin
     id 23
     name lthumb
     direction 0.707107 -6.35048e-011 0.707107   
     length 1.36499   
     axis -90 45 2.85299e-015   XYZ
    dof rx rz
    limits (-45.0 45.0)
           (-45.0 45.0)
  end
  begin
     id 24 
     name rclavicle
     direction -0.996699 0.0642895 -0.0495725   
     length 4.62611  
     axis 0 0 0   XYZ 
    dof ry rz
    limits (-10.0 20.0)
           (-20.0 0.0)
  end
  begin
     id 25 
     name rhumerus
     direction -1 -4.48919e-011 -2.41059e-027  
     length 5.4981   
     axis 180 30 90   XYZ
    dof rx ry rz
    limits (-90.0 60.0)
           (-90.0 90.0)
           (-90.0 90.0)
  end
  begin
     id 26 
     name rradius
     direction -0.999999 0.00118101 -0.000681858   
     length 3.48381   
     axis 180 30 90   XYZ
    dof rx
    limits (-10.0 170.0)
  end
  begin
     id 27 
     name rwrist
     direction -0.999999 0.000321823 -0.00132288   
     length 1.7419   
     axis 4.65056e-015 -90 -90   XYZ
    dof ry
    limits (-180.0 0.0)
  end
  begin
     id 28
     name rhand
     direction -1 -4.49022e-011 -1.31746e-026   
     length 1.34932   
     axis 8.4065e-015 -90 -90   XYZ
    dof rx rz
    limits (-90.0 90.0)
           (-45.0 45.0)
  end
  begin
     id 29
     name rfingers
     direction -1 -4.49178e-011 -2.63492e-026   
     length 1.08785   
     axis 1.6813e-014 -90 -90   XYZ
    dof rx
    limits (0.0 90.0)
  end
  begin
     id 30
     name rthumb
     direction -0.707107 -6.34713e-011 0.707107   
     length 1.56195   
     axis -90 -45 -2.85299e-015   XYZ
    dof rx rz
    limits (-45.0 45.0)
           (-45.0 45.0)
  end
:hierarchy
  begin
    root lhipjoint rhipjoint lowerback
    lhipjoint lfemur
    lfemur ltibia
    ltibia lfoot
    lfoot ltoes
    rhipjoint rfemur
    rfemur rtibia
    rtibia rfoot
    rfoot rtoes
    lowerback upperback
    upperback thorax
    thorax lowerneck lclavicle rclavicle
    lowerneck upperneck
    upperneck head
    lclavicle lhumerus
    lhumerus lradius
    lradius lwrist
    lwrist lhand lthumb
    lhand lfingers
    rclavicle rhumerus
    rhumerus rradius
    rradius rwrist
    rwrist rhand rthumb
    rhand rfingers
  end

#!OML:ASF X:\für Bonn\!DataBase\2005_08_10_Bjorn_Final\c3d\bjorn.ASF
:FULLY-SPECIFIED
:DEGREES
16
root 4.99961 18.8135 0.00263743 6.09029 0.705092 360.804
lowerback -4.95741 2.00975 2.20426
upperback 7.47999 2.47289 0.179549
thorax 10.8613 1.36633 -0.686335
lowerneck -2.64062 -3.14033 0.128833
upperneck 1.69656 -4.2047 0.527564
head 0.962775 -2.09286 0.0724758
rclavicle -1.94809e-014 3.18055e-015
rhumerus -51.8736 -22.5136 -74.4671
rradius 105.285
rwrist -2.24156
rhand -34.6712 34.2452
rfingers 7.12502
rthumb -7.82742 4.41013
lclavicle -1.94809e-014 3.18055e-015
lhumerus -46.7512 -12.7783 89.2735
lradius 82.6367
lwrist 8.77793
lhand -47.0225 -23.4043
lfingers 7.12502
lthumb -19.729 5.61449
rfemur -8.24163 -2.19408 9.74697
rtibia 45.7997
rfoot -5.7107 18.4711
rtoes -25.7143
lfemur -13.2818 1.79109 -14.5132
ltibia 50.6907
lfoot -7.61385 -11.5998
ltoes -34.3102
17
root 5.00295 19.0816 0.288745 5.81382 0.725798 360.652
lowerback -6.11983 2.02002 2.32381
upperback 6.88105 2.45209 0.147863
thorax 10.8973 1.36022 -0.762591
lowerneck -1.27864 -3.11773 0.202982
upperneck 3.56892 -4.18088 0.564446
head 1.31747 -2.07337 0.0763471
rclavicle -3.89618e-014 1.11319e-014
rhumerus -53.3456 -21.9714 -73.5923
rradius 108.786
rwrist -1.51098
rhand -35.1214 34.9304
rfingers 7.12502
rthumb -8.2619 5.11198
lclavicle -3.89618e-014 1.11319e-014
lhumerus -48.5408 -14.0428 89.4425
lradius 85.8652
lwrist 6.20577
lhand -45.9724 -22.9081
lfingers 7.12502
lthumb -18.7192 6.21121
rfemur -6.21072 -2.80692 9.62611
rtibia 43.0295
rfoot 0.133254 17.3646
rtoes -23.1588
lfemur -11.0869 2.38191 -13.9714
ltibia 47.5819
lfoot -2.86029 -12.5177
ltoes -33.7772
18
root 5.00522 19.3617 0.57812 5.46652 0.741801 360.537
lowerback -7.23811 2.04191 2.41749
upperback 6.4473 2.44886 0.100497
thorax 11.0929 1.36319 -0.836511
lowerneck -0.212042 -3.08087 0.117497
upperneck 5.39829 -4.1509 0.900969
head 1.72553 -2.04601 0.194926
rclavicle 6.65929e-015 -4.77083e-015
rhumerus -54.5281 -21.4123 -72.972
rradius 112.092
rwrist -1.25017
rhand -35.6616 36.0876
rfingers 7.12502
rthumb -8.78322 6.29034
lclavicle 6.65929e-015 -4.77083e-015
lhumerus -49.9368 -15.338 89.5741
lradius 88.8906
lwrist 3.43821
lhand -45.4502 -22.6426
lfingers 7.12502
lthumb -18.2168 6.52441
rfemur -4.38198 -3.33919 9.48303
rtibia 40.5875
rfoot 5.57069 15.6432
rtoes -21.4036
lfemur -8.83778 2.77447 -13.4837
ltibia 44.5084
lfoot 2.13973 -12.9102
ltoes -33.4835
19
root 5.0085 19.6434 0.862187 5.27063 0.758688 360.413
lowerback -8.47746 2.04822 2.52169
upperback 6.08331 2.41481 0.0736018
thorax 11.4386 1.35214 -0.894479
lowerneck 0.628299 -3.01924 -0.115845
upperneck 7.20223 -4.10555 1.37223
head 2.18026 -2.00923 0.380073
rclavicle -1.81888e-014 9.93923e-015
rhumerus -55.2779 -20.8465 -72.4979
rradius 115.218
rwrist -1.24926
rhand -35.8962 36.6544
rfingers 7.12502
rthumb -9.00968 6.86682
lclavicle -1.81888e-014 9.93923e-015
lhumerus -50.9982 -16.4979 89.7064
lradius 91.7052
lwrist 0.46235
lhand -45.5059 -22.2899
lfingers 7.12502
lthumb -18.2704 6.87204
rfemur -3.07889 -3.78019 9.39022
rtibia 38.5775
rfoot 10.4749 13.6307
rtoes -20.9634
lfemur -6.88692 2.94896 -13.0476
ltibia 41.6438
lfoot 7.12318 -12.7219
ltoes -33.4078
20
root 5.01206 19.9213 1.14086 4.94353 0.775655 360.298
lowerback -9.53507 2.03589 2.57071
upperback 5.85594 2.36056 0.0903371
thorax 11.8228 1.32685 -0.882784
lowerneck 1.44548 -2.9519 -0.210196
upperneck 8.73747 -4.04998 1.64372
head 2.55109 -1.96932 0.484818
rclavicle -9.14409e-015 -7.55382e-015
rhumerus -55.6937 -20.253 -72.1685
rradius 118.062
rwrist -1.02907
rhand -36.1584 36.7392
rfingers 7.12502
rthumb -9.26267 6.96265
lclavicle -9.14409e-015 -7.55382e-015
lhumerus -51.7833 -17.5734 89.8571
lradius 94.3803
lwrist -2.15079
lhand -45.8832 -22.3259
lfingers 7.12502
lthumb -18.6333 6.80165
rfemur -1.88295 -4.14841 9.28509
rtibia 36.9858
rfoot 14.8489 11.6332
rtoes -21.2509
lfemur -4.93097 2.9333 -12.6662
ltibia 39.027
lfoot 11.7623 -12.222
ltoes -33.2792
21
root 5.01721 20.2063 1.40614 4.75088 0.78302 360.155
lowerback -10.477 2.00481 2.64384
upperback 5.5989 2.27504 0.145614
thorax 12.1004 1.28617 -0.855365
lowerneck 2.40236 -2.8484 -0.253446
upperneck 9.93321 -3.9368 1.79769
head 2.78405 -1.90535 0.550676
rclavicle 3.27995e-015 -1.43125e-014
rhumerus -56.0178 -19.5894 -71.8843
rradius 120.693
rwrist -0.806903
rhand -36.462 36.6957
rfingers 7.12502
rthumb -9.5556 6.93243
lclavicle 3.27995e-015 -1.43125e-014
lhumerus -52.5047 -18.4995 90.0969
lradius 96.6705
lwrist -4.61806
lhand -47.0668 -23.2565
lfingers 7.12502
lthumb -19.7715 5.75794
rfemur -1.04944 -4.46825 9.25692
rtibia 35.8342
rfoot 18.4673 9.88851
rtoes -21.5484
lfemur -3.45041 2.77898 -12.331
ltibia 36.7688
lfoot 15.9881 -11.3715
ltoes -33.0037
22
root 5.02212 20.4923 1.64904 4.66907 0.789283 359.999
lowerback -11.249 1.96089 2.73336
upperback 5.39214 2.17241 0.201477
thorax 12.3315 1.23947 -0.846332
lowerneck 3.17144 -2.75647 -0.266618
upperneck 10.8564 -3.83519 1.91777
head 2.9608 -1.84828 0.599702
rclavicle -2.33572e-015 -5.1684e-015
rhumerus -56.1188 -18.9502 -71.8169
rradius 122.913
rwrist -0.304963
rhand -37.165 37.1799
rfingers 7.12502
rthumb -10.2338 7.44888
lclavicle -2.33572e-015 -5.1684e-015
lhumerus -52.9946 -19.4055 90.2859
lradius 98.4041
lwrist -6.35453
lhand -48.9176 -26.0708
lfingers 7.12502
lthumb -21.5498 2.75029
rfemur -0.57348 -4.72418 9.31748
rtibia 35.1013
rfoot 21.3473 8.3434
rtoes -21.4478
lfemur -2.39535 2.46702 -12.0584
ltibia 34.9148
lfoot 19.6882 -10.1732
ltoes -32.4294
23
root 5.0263 20.7791 1.87068 4.77119 0.778727 359.875
lowerback -11.7929 1.88826 2.75738
upperback 5.09501 2.04602 0.284637
thorax 12.314 1.17322 -0.786949
lowerneck 3.79117 -2.66319 -0.338961
upperneck 11.8047 -3.72677 1.94142
head 3.17505 -1.79214 0.626087
rclavicle 1.88845e-015 3.97569e-016
rhumerus -56.2315 -18.1329 -71.7806
rradius 124.627
rwrist 0.373345
rhand -38.7752 38.9422
rfingers 7.12502
rthumb -11.7869 9.29384
lclavicle 1.88845e-015 3.97569e-016
lhumerus -53.4894 -20.1263 90.4389
lradius 100.097
lwrist -7.5658
lhand -50.2594 -28.0802
lfingers 7.12502
lthumb -22.8381 0.587618
rfemur -0.578373 -4.80954 9.46522
rtibia 34.7915
rfoot 23.5271 6.9076
rtoes -22.0044
lfemur -1.81838 2.1223 -11.8686
ltibia 33.529
lfoot 22.922 -8.65227
ltoes -30.5304
24
root 5.03188 21.0562 2.0803 5.02042 0.768455 359.745
lowerback -12.2356 1.83371 2.86504
upperback 4.74099 1.939 0.319969
thorax 12.1761 1.12419 -0.827986
lowerneck 4.29726 -2.6046 -0.276153
upperneck 12.7897 -3.65316 1.83786
head 3.42074 -1.75072 0.585924
rclavicle 2.45002e-014 -8.74653e-015
rhumerus -56.3415 -17.3529 -71.9039
rradius 126.029
rwrist 0.689579
rhand -39.8247 40.9166
rfingers 7.12502
rthumb -12.7987 11.3289
lclavicle 2.45002e-014 -8.74653e-015
lhumerus -54.0207 -20.8206 90.5163
lradius 101.642
lwrist -8.32609
lhand -50.9762 -29.0114
lfingers 7.12502
lthumb -23.5257 -0.430136
rfemur -0.945165 -4.8033 9.72041
rtibia 34.842
rfoot 24.8082 5.71446
rtoes -24.12
lfemur -1.66595 1.76613 -11.7262
ltibia 32.6319
lfoot 25.5733 -6.90225
ltoes -27.4996
25
root 5.03683 21.3143 2.27566 5.38665 0.771672 359.617
lowerback -12.5797 1.7698 2.96325
upperback 4.36796 1.82249 0.373341
thorax 11.9553 1.06818 -0.850116
lowerneck 4.78019 -2.5742 -0.202224
upperneck 13.6802 -3.60089 1.60842
head 3.63852 -1.72424 0.501908
rclavicle 7.95139e-016 1.19271e-015
rhumerus -56.3922 -16.551 -72.0276
rradius 127.202
rwrist 0.566513
rhand -40.4073 41.9875
rfingers 7.12502
rthumb -13.3603 12.4358
lclavicle 7.95139e-016 1.19271e-015
lhumerus -54.5086 -21.3851 90.5708
lradius 102.976
lwrist -8.51873
lhand -50.9529 -28.9871
lfingers 7.12502
lthumb -23.5034 -0.402921
rfemur -1.6411 -4.8007 10.0431
rtibia 35.2061
rfoot 25.443 4.70946
rtoes -26.2157
lfemur -1.90664 1.50182 -11.587
ltibia 32.1941
lfoot 27.6 -5.25566
ltoes -23.3866
26
root 5.04168 21.5604 2.46131 5.82984 0.730349 359.464
lowerback -12.8673 1.75642 3.1336
upperback 4.07817 1.7655 0.396049
thorax 11.802 1.04816 -0.932783
lowerneck 5.07063 -2.59296 0.0662367
upperneck 14.4387 -3.59093 1.22627
head 3.84084 -1.71444 0.330517
rclavicle 1.44119e-015 1.07344e-014
rhumerus -56.2615 -15.9095 -72.2951
rradius 128.117
rwrist 0.0794797
rhand -40.4925 42.3005
rfingers 7.12502
rthumb -13.4425 12.7543
lclavicle 1.44119e-015 1.07344e-014
lhumerus -54.7553 -21.8894 90.5223
lradius 103.995
lwrist -8.18677
lhand -50.4218 -28.8357
lfingers 7.12502
lthumb -22.9939 -0.187201
rfemur -2.58477 -5.00161 10.3805
rtibia 35.7718
rfoot 25.6997 4.18903
rtoes -27.5935
lfemur -2.45249 1.47754 -11.4358
ltibia 32.1423
lfoot 28.9222 -4.31679
ltoes -20.05
